<?xml version="1.0" standalone="no"?><!DOCTYPE svg PUBLIC "-//W3C//DTD SVG 1.1//EN" "http://www.w3.org/Graphics/SVG/1.1/DTD/svg11.dtd"><svg t="1746432794750" class="icon" viewBox="0 0 1024 1024" version="1.1" xmlns="http://www.w3.org/2000/svg" p-id="14833" data-darkreader-inline-fill="" xmlns:xlink="http://www.w3.org/1999/xlink" width="200" height="200"><path d="M512 128a298.752 298.752 0 0 1 285.056 209.472A256 256 0 0 1 703.936 832a42.688 42.688 0 0 1 0-85.312 170.624 170.624 0 0 0 46.272-334.976l-24.512-6.912-5.568-24.896a213.376 213.376 0 0 0-416.256 0l-5.568 24.896-24.512 6.912A170.752 170.752 0 0 0 320 746.688 42.688 42.688 0 0 1 320 832a256 256 0 0 1-93.12-494.528A298.752 298.752 0 0 1 512 128z m64 422.656v196.032a42.688 42.688 0 0 1-85.312 0V539.648L422.528 605.76a42.624 42.624 0 1 1-59.392-61.184l105.088-102.016a85.312 85.312 0 0 1 118.848 0l105.152 102.016a42.688 42.688 0 0 1-59.392 61.184L576 550.656z" fill="#089ce9" p-id="14834" data-darkreader-inline-fill="" style="--darkreader-inline-fill: var(--darkreader-background-089ce9, #067dba);"></path></svg>